<?xml version="1.0" standalone="no"?>
<!DOCTYPE svg PUBLIC "-//W3C//DTD SVG 20010904//EN"
 "http://www.w3.org/TR/2001/REC-SVG-20010904/DTD/svg10.dtd">
<svg version="1.0" xmlns="http://www.w3.org/2000/svg"
 width="32.000000pt" height="32.000000pt" viewBox="0 0 32.000000 32.000000"
 preserveAspectRatio="xMidYMid meet">
<metadata>
Created by potrace 1.10, written by Peter Selinger 2001-2011
</metadata>
<g transform="translate(0.000000,32.000000) scale(0.050000,-0.050000)"
fill="#000000" stroke="none">
<path d="M224 626 c-212 -41 -289 -355 -128 -524 129 -134 323 -133 296 2 -10
50 -5 56 39 56 74 0 158 49 185 109 94 206 -128 407 -392 357z m146 -136 c0
-51 -79 -66 -98 -19 -17 46 4 72 55 65 28 -4 43 -20 43 -46z m-125 -35 c15
-41 -7 -75 -46 -75 -44 0 -67 31 -51 71 13 36 85 38 97 4z m245 -25 c0 -60
-78 -54 -87 7 -5 38 2 45 40 40 31 -5 47 -20 47 -47z m-280 -140 c0 -51 -79
-66 -98 -19 -17 46 4 72 55 65 28 -4 43 -20 43 -46z"/>
</g>
</svg>
